<svg width="11" height="12" viewBox="0 0 11 12" fill="none" xmlns="http://www.w3.org/2000/svg">
<path d="M5.5 9C5.32255 9 5.1451 8.93774 5.005 8.80433L2.20314 6.13618C1.93229 5.87826 1.93229 5.45136 2.20314 5.19344C2.47398 4.93552 2.92228 4.93552 3.19313 5.19344L5.5 7.39022L7.80687 5.19344C8.07772 4.93552 8.52602 4.93552 8.79686 5.19344C9.06771 5.45136 9.06771 5.87826 8.79686 6.13618L5.995 8.80433C5.8549 8.93774 5.67745 9 5.5 9Z" fill="white"/>
<rect x="5" width="1" height="8" rx="0.5" fill="white"/>
<path d="M5.49593 12C3.77755 12 2.05104 11.725 0.414105 11.183C0.0964907 11.0778 -0.0745332 10.73 0.0313381 10.4145C0.137209 10.099 0.479253 9.92101 0.805011 10.0343C3.83456 11.0374 7.16543 11.0374 10.195 10.0343C10.5126 9.9291 10.8628 10.099 10.9687 10.4145C11.0745 10.73 10.9035 11.0778 10.5859 11.183C8.94082 11.7331 7.2143 12 5.49593 12Z" fill="white"/>
</svg>
