<svg width="100" height="100" viewBox="0 0 100 100" fill="none" xmlns="http://www.w3.org/2000/svg">
<circle cx="50" cy="50" r="44" stroke="url(#paint0_linear_610_5)" stroke-width="12"/>
<mask id="path-2-inside-1_610_5" fill="white">
<path d="M13.9564 74.899C11.1425 76.8428 10.4107 80.7308 12.6872 83.283C16.2606 87.289 20.4649 90.7036 25.1462 93.3853C31.6236 97.096 38.8498 99.3092 46.2943 99.8625C53.7388 100.416 61.2127 99.295 68.1675 96.5826C73.1938 94.6224 77.8567 91.8667 81.9829 88.433C84.6118 86.2453 84.4626 82.2919 81.967 79.9534C79.4714 77.615 75.5779 77.7913 72.8621 79.87C70.0636 82.0119 66.9697 83.7562 63.6674 85.0441C58.4353 87.0847 52.8127 87.9278 47.2122 87.5116C41.6117 87.0953 36.1755 85.4304 31.3025 82.6388C28.2268 80.8769 25.4248 78.6944 22.9737 76.1623C20.595 73.7051 16.7703 72.9551 13.9564 74.899Z"/>
</mask>
<path d="M13.9564 74.899C11.1425 76.8428 10.4107 80.7308 12.6872 83.283C16.2606 87.289 20.4649 90.7036 25.1462 93.3853C31.6236 97.096 38.8498 99.3092 46.2943 99.8625C53.7388 100.416 61.2127 99.295 68.1675 96.5826C73.1938 94.6224 77.8567 91.8667 81.9829 88.433C84.6118 86.2453 84.4626 82.2919 81.967 79.9534C79.4714 77.615 75.5779 77.7913 72.8621 79.87C70.0636 82.0119 66.9697 83.7562 63.6674 85.0441C58.4353 87.0847 52.8127 87.9278 47.2122 87.5116C41.6117 87.0953 36.1755 85.4304 31.3025 82.6388C28.2268 80.8769 25.4248 78.6944 22.9737 76.1623C20.595 73.7051 16.7703 72.9551 13.9564 74.899Z" stroke="url(#paint1_linear_610_5)" stroke-width="30" mask="url(#path-2-inside-1_610_5)"/>
<defs>
<linearGradient id="paint0_linear_610_5" x1="17.3554" y1="13.6364" x2="87.1901" y2="83.4711" gradientUnits="userSpaceOnUse">
<stop stop-color="#F0F3FF"/>
<stop offset="1" stop-color="#F1FAFF"/>
</linearGradient>
<linearGradient id="paint1_linear_610_5" x1="83.4577" y1="78.9123" x2="11.1436" y2="78.9123" gradientUnits="userSpaceOnUse">
<stop stop-color="#44CEFF"/>
<stop offset="1" stop-color="#4F9EFF"/>
</linearGradient>
</defs>
</svg>
