<svg width="100" height="100" viewBox="0 0 100 100" fill="none" xmlns="http://www.w3.org/2000/svg">
<circle cx="50" cy="50" r="44" stroke="url(#paint0_linear_520_146)" stroke-width="12"/>
<path d="M55.6982 46.0373C52.8316 42.7562 51.2768 39.8376 51.3647 34C48.9374 36.0005 46.1939 39.2589 44.7727 42.1522C44.9807 46.9097 51.2495 48.0504 55.6978 46.0373H55.6982Z" fill="#00D7BD"/>
<path d="M51.3649 34C51.663 39.7137 53.8371 42.8377 55.698 46.0373C55.3414 46.1988 55.0388 46.3699 54.7829 46.5445C51.6969 41.5834 50.9999 38.7231 51.3649 34Z" fill="#00B8A2"/>
<path d="M47.9666 65C58.2523 59.756 56.4195 48.0984 64 47.5839C63.4169 46.1269 61.7508 45.7839 60.2513 45.7839C59.7518 44.3694 58.6538 43.4694 56.0862 43.9839C54.9702 44.2074 53.501 45.2386 51.0456 45.1413C48.4657 45.0395 41.6332 41.3807 40.569 34C36.0446 48.9242 56.9322 54.6519 47.9666 65Z" fill="#FFC700"/>
<mask id="mask0_520_146" style="mask-type:alpha" maskUnits="userSpaceOnUse" x="39" y="34" width="25" height="31">
<path d="M47.9666 65C58.2523 59.756 56.4195 48.0984 64 47.5839C63.4169 46.1269 61.7508 45.7839 60.2513 45.7839C59.7518 44.3694 58.6538 43.4694 56.0862 43.9839C54.9702 44.2074 53.501 45.2386 51.0456 45.1413C48.4657 45.0395 41.6332 41.3806 40.569 34C36.0446 48.9242 56.9322 54.6519 47.9666 65Z" fill="url(#paint1_linear_520_146)"/>
</mask>
<g mask="url(#mask0_520_146)">
<path opacity="0.4" d="M39.691 70.8301C44.4139 50.4904 57.5813 46.8986 63.8785 47.625C58.9667 48.3999 56.7722 70.1844 55.985 81L39.691 70.8301Z" fill="#E26767"/>
</g>
<path d="M47.9666 65C56.2529 58.9845 54.2314 50.1609 48.4679 45.8699C44.4945 42.9119 40.7788 40.2177 40.569 34C32.9015 43.4997 35.7452 50.402 43.3824 54.4188C49.1301 57.442 49.2555 61.9416 47.9666 65Z" fill="#326BFF"/>
<defs>
<linearGradient id="paint0_linear_520_146" x1="17.3554" y1="13.6364" x2="87.1901" y2="83.4711" gradientUnits="userSpaceOnUse">
<stop stop-color="#F0F3FF"/>
<stop offset="1" stop-color="#F1FAFF"/>
</linearGradient>
<linearGradient id="paint1_linear_520_146" x1="51.9594" y1="34" x2="51.9594" y2="65" gradientUnits="userSpaceOnUse">
<stop stop-color="#0092E7"/>
<stop offset="1" stop-color="#0092E7" stop-opacity="0"/>
</linearGradient>
</defs>
</svg>
