<svg width="185" height="49" viewBox="0 0 185 49" fill="none" xmlns="http://www.w3.org/2000/svg">
<path d="M30.5139 18.6889C26.0632 13.5948 23.6491 9.06344 23.7857 0C20.0171 3.10592 15.7576 8.16489 13.5511 12.6569C13.874 20.0434 23.6068 21.8145 30.5132 18.6889H30.5139Z" fill="#00D7BD"/>
<path d="M23.7858 0C24.2487 8.87094 27.6241 13.7213 30.5133 18.6889C29.9597 18.9397 29.4899 19.2053 29.0926 19.4765C24.3013 11.7738 23.2192 7.33309 23.7858 0Z" fill="#00B8A2"/>
<path d="M18.5097 48.1302C34.4791 39.9884 31.6336 21.889 43.4029 21.0902C42.4976 18.828 39.9108 18.2955 37.5828 18.2955C36.8072 16.0994 35.1024 14.702 31.1161 15.5008C29.3833 15.8478 27.1024 17.4489 23.2901 17.2979C19.2846 17.1398 8.6765 11.4591 7.02433 0C-0.000152588 23.1711 32.4296 32.0638 18.5097 48.1302Z" fill="#FFC700"/>
<mask id="mask0_292_708" style="mask-type:alpha" maskUnits="userSpaceOnUse" x="6" y="0" width="38" height="49">
<path d="M18.5097 48.1301C34.4791 39.9884 31.6336 21.889 43.4029 21.0902C42.4976 18.828 39.9108 18.2955 37.5828 18.2955C36.8072 16.0994 35.1024 14.702 31.1161 15.5008C29.3833 15.8478 27.1024 17.4489 23.2901 17.2979C19.2846 17.1398 8.6765 11.4591 7.02433 0C-0.000152588 23.1711 32.4296 32.0638 18.5097 48.1301Z" fill="url(#paint0_linear_292_708)"/>
</mask>
<g mask="url(#mask0_292_708)">
<path opacity="0.4" d="M5.6611 57.1819C12.9938 25.6027 33.4373 20.0262 43.2142 21.154C35.5882 22.357 32.181 56.1794 30.9589 72.9715L5.6611 57.1819Z" fill="#E26767"/>
</g>
<path d="M18.5097 48.1301C31.3748 38.7906 28.2364 25.0911 19.288 18.429C13.119 13.8365 7.35001 9.65357 7.02436 0C-4.88019 14.7491 -0.465054 25.4656 11.3924 31.702C20.3162 36.3957 20.5108 43.3817 18.5097 48.1301Z" fill="#326BFF"/>
<path fill-rule="evenodd" clip-rule="evenodd" d="M74.2578 39.6849L74.2642 39.6885L74.2708 39.6921C75.623 40.4202 77.147 40.7745 78.8225 40.7745C79.7861 40.7745 80.7747 40.5964 81.7845 40.2533C82.8077 39.912 83.6919 39.4605 84.4177 38.8853C84.8997 38.5143 85.2134 37.9864 85.177 37.3326C85.1434 36.7271 84.8356 36.2293 84.3987 35.8438L84.3924 35.8382L84.3861 35.8328C83.9807 35.4898 83.4922 35.3367 82.9702 35.3607C82.4721 35.3656 82.015 35.5329 81.6149 35.8264L81.6079 35.8315C81.3167 36.05 80.8988 36.2697 80.3293 36.4773C79.8071 36.6561 79.306 36.7412 78.8225 36.7412C77.8733 36.7412 77.065 36.5343 76.3744 36.1419C75.6694 35.7414 75.1253 35.2037 74.7285 34.5213C74.6235 34.3406 74.5319 34.1522 74.4541 33.9558H84.1196C84.6693 33.9558 85.1829 33.785 85.5955 33.4042L85.6073 33.3933L85.6187 33.3819C86.0194 32.9812 86.2208 32.4735 86.2208 31.911C86.2208 31.4181 86.1917 30.9401 86.1327 30.4776L86.0759 30.0917C85.9294 29.2148 85.6706 28.3966 85.2941 27.6416C84.6849 26.3636 83.7838 25.3537 82.5978 24.6324C81.3973 23.8834 79.9863 23.5266 78.3999 23.5266C76.7908 23.5266 75.3329 23.8943 74.0502 24.6502C72.7761 25.3823 71.7725 26.4096 71.0466 27.7163L71.0444 27.7202C70.331 29.0211 69.9873 30.5108 69.9873 32.1646C69.9873 33.8096 70.3541 35.3027 71.1077 36.6214L71.1115 36.628L71.1154 36.6345C71.8836 37.9219 72.9354 38.9411 74.2578 39.6849ZM81.5927 29.5305C81.6794 29.7085 81.755 29.8954 81.8191 30.0917H74.4959C74.541 29.977 74.5902 29.8654 74.6433 29.7566L74.6464 29.7501C74.9766 29.0583 75.4464 28.5296 76.0615 28.1442C76.6829 27.7664 77.4511 27.5598 78.3999 27.5598C79.2129 27.5598 79.8503 27.7454 80.3528 28.0756C80.8798 28.422 81.2917 28.8972 81.5892 29.5234L81.5927 29.5305ZM92.1866 39.6639L92.1936 39.6683L92.2006 39.6725C93.4287 40.4136 94.8247 40.7745 96.364 40.7745C97.8036 40.7745 99.1065 40.407 100.245 39.6551L100.254 39.6492C100.536 39.4576 100.802 39.2487 101.052 39.0231C100.967 39.7079 100.787 40.2877 100.528 40.774C100.143 41.4955 99.6376 42.0163 99.0131 42.3667L99.0057 42.3709C98.3814 42.7299 97.6942 42.9118 96.9275 42.9118C96.05 42.9118 95.2948 42.7519 94.6456 42.4511C93.9876 42.1462 93.4524 41.7277 93.0275 41.195C92.6821 40.7394 92.211 40.4489 91.6511 40.336C91.0589 40.2125 90.4948 40.3506 90.0004 40.6802L89.9956 40.6834L89.9909 40.6867C89.5323 41.0019 89.2194 41.4444 89.0976 41.9925L89.0929 42.0136L89.0894 42.0348C88.99 42.6307 89.1717 43.1795 89.5257 43.6423L89.5305 43.6486L89.5354 43.6548C90.4216 44.7676 91.5095 45.6181 92.7924 46.1975C94.0657 46.7725 95.4283 47.0577 96.8711 47.0577C98.5396 47.0577 100.041 46.6698 101.347 45.8697C102.653 45.0816 103.673 44.0089 104.398 42.6632C105.124 41.3336 105.481 39.8569 105.481 38.2507V31.5787L105.465 31.5736C105.388 30.1495 105.026 28.8557 104.362 27.7097C103.634 26.4028 102.62 25.3774 101.329 24.6474C100.028 23.8935 98.5536 23.5266 96.9275 23.5266C95.2846 23.5266 93.8 23.8926 92.4983 24.6473C91.2067 25.3774 90.184 26.4024 89.438 27.7078L89.436 27.7115C88.7006 29.0141 88.3458 30.5069 88.3458 32.1646C88.3458 33.798 88.6794 35.2817 89.3675 36.5955L89.37 36.6002C90.0528 37.883 90.9926 38.9098 92.1866 39.6639ZM101.915 38.0534L101.915 38.1012C101.915 38.0853 101.915 38.0694 101.915 38.0534ZM100.561 34.511L100.557 34.5176L100.553 34.5242C100.208 35.1843 99.7278 35.6936 99.1055 36.067C98.4932 36.4344 97.7755 36.6285 96.9275 36.6285C96.0794 36.6285 95.3617 36.4344 94.7495 36.067C94.124 35.6917 93.6316 35.1781 93.2663 34.511C92.9082 33.8572 92.7171 33.0829 92.7171 32.1646C92.7171 31.2464 92.9082 30.472 93.2663 29.8182L93.27 29.8112C93.6367 29.1258 94.1287 28.6065 94.7495 28.234C95.3617 27.8667 96.0794 27.6725 96.9275 27.6725C97.7755 27.6725 98.4932 27.8667 99.1055 28.234C99.723 28.6046 100.203 29.1195 100.55 29.7982L100.555 29.8083L100.561 29.8182C100.919 30.472 101.11 31.2464 101.11 32.1646C101.11 33.0829 100.919 33.8572 100.561 34.511ZM108.491 36.5527C109.192 37.8325 110.149 38.8639 111.356 39.6338L111.364 39.6391C112.59 40.3999 113.969 40.7745 115.48 40.7745C116.99 40.7745 118.37 40.4 119.595 39.6391L119.604 39.6338C119.819 39.4962 120.027 39.3502 120.226 39.196C120.325 39.5048 120.49 39.7893 120.724 40.0397L120.743 40.06L120.763 40.0789C121.205 40.4917 121.754 40.6899 122.355 40.6899C122.956 40.6899 123.507 40.4911 123.938 40.0597C124.377 39.6208 124.597 39.0658 124.597 38.4479V31.6363L124.583 31.6302C124.507 30.2242 124.132 28.9293 123.446 27.7601C122.701 26.4584 121.682 25.4277 120.396 24.6803C119.098 23.9066 117.64 23.5266 116.043 23.5266C114.446 23.5266 112.979 23.9071 111.665 24.679C110.378 25.4261 109.35 26.4559 108.587 27.7559L108.582 27.7642C107.83 29.0799 107.462 30.5534 107.462 32.1646C107.462 33.764 107.797 35.2282 108.483 36.5392L108.487 36.546L108.491 36.5527ZM123.748 31.268C123.751 31.2985 123.754 31.329 123.756 31.3596C123.755 31.3453 123.754 31.331 123.752 31.3168C123.751 31.3005 123.749 31.2842 123.748 31.268ZM120.225 32.1646C120.225 33.0379 120.037 33.8061 119.675 34.4862C119.309 35.1523 118.815 35.6765 118.187 36.0708C117.574 36.4372 116.867 36.6285 116.043 36.6285C115.243 36.6285 114.534 36.4393 113.896 36.0685C113.268 35.6738 112.764 35.1483 112.381 34.48C112.02 33.8014 111.833 33.0353 111.833 32.1646C111.833 31.2692 112.022 30.5045 112.381 29.8492C112.767 29.1586 113.27 28.6361 113.893 28.2622L113.898 28.2592C114.537 27.8699 115.246 27.6725 116.043 27.6725C116.863 27.6725 117.568 27.8714 118.181 28.2546L118.187 28.2584L118.193 28.2622C118.814 28.6347 119.306 29.154 119.673 29.8394L119.676 29.8464C120.036 30.5023 120.225 31.2679 120.225 32.1646Z" fill="#444444"/>
<path d="M44.1191 40.0866V30.5465C44.1191 29.3631 44.3914 28.3018 44.9362 27.3626C45.4997 26.4046 46.298 25.6532 47.3312 25.1085C48.3643 24.5638 49.5946 24.2914 51.0222 24.2914C51.736 24.2914 52.3935 24.3759 52.9946 24.545C53.5957 24.6953 54.1404 24.9113 54.6288 25.193C55.136 25.456 55.568 25.7753 55.9249 26.151H55.9812C56.3569 25.7753 56.789 25.456 57.2774 25.193C57.7845 24.9113 58.3387 24.6953 58.9397 24.545C59.5596 24.3759 60.2265 24.2914 60.9403 24.2914C62.3678 24.2914 63.5982 24.5638 64.6313 25.1085C65.6645 25.6532 66.4628 26.4046 67.0263 27.3626C67.5898 28.3018 67.8716 29.3631 67.8716 30.5465V40.0866H63.4761V30.6874C63.4761 30.2178 63.354 29.7951 63.1098 29.4195C62.8844 29.025 62.5745 28.7057 62.18 28.4615C61.7855 28.2173 61.3347 28.0952 60.8275 28.0952C60.3204 28.0952 59.8602 28.2173 59.4469 28.4615C59.0524 28.7057 58.7425 29.025 58.5171 29.4195C58.2917 29.7951 58.179 30.2178 58.179 30.6874V40.0866H53.8117V30.6874C53.8117 30.2178 53.6896 29.7951 53.4454 29.4195C53.22 29.025 52.9007 28.7057 52.4874 28.4615C52.0929 28.2173 51.6421 28.0952 51.1349 28.0952C50.6278 28.0952 50.1676 28.2173 49.7543 28.4615C49.3598 28.7057 49.0499 29.025 48.8245 29.4195C48.5991 29.7951 48.4864 30.2178 48.4864 30.6874V40.0866H44.1191Z" fill="#444444"/>
<path fill-rule="evenodd" clip-rule="evenodd" d="M128.713 36.5369C129.457 37.84 130.476 38.88 131.76 39.6464L131.769 39.6512C133.067 40.405 134.523 40.7744 136.118 40.7744C137.729 40.7744 139.195 40.4059 140.495 39.6513L140.503 39.6464C141.786 38.8808 142.804 37.8423 143.548 36.5413C144.32 35.2253 144.699 33.7501 144.699 32.1364C144.699 30.5361 144.354 29.0782 143.646 27.7833C142.963 26.4827 142.014 25.4466 140.801 24.6928C139.575 23.9119 138.194 23.5266 136.681 23.5266C135.456 23.5266 134.309 23.7869 133.253 24.3145C132.826 24.5237 132.424 24.766 132.048 25.0411V19.2881C132.048 18.6799 131.856 18.1148 131.418 17.6763C130.979 17.2379 130.414 17.0461 129.806 17.0461C129.205 17.0461 128.657 17.2443 128.214 17.6571L128.204 17.6665L128.194 17.6763C127.756 18.1148 127.564 18.6799 127.564 19.2881L127.564 32.1364L127.564 32.1466C127.585 33.7547 127.963 35.2244 128.713 36.5369ZM139.754 34.449L139.75 34.4553L139.747 34.4616C139.38 35.1475 138.886 35.6786 138.261 36.0707C137.648 36.4371 136.941 36.6285 136.118 36.6285C135.318 36.6285 134.608 36.4393 133.97 36.0685C133.347 35.6766 132.854 35.1462 132.488 34.4616C132.124 33.7807 131.935 33.0113 131.935 32.1364C131.935 31.2397 132.125 30.4741 132.485 29.8182C132.85 29.1511 133.342 28.6375 133.968 28.2622L133.973 28.2592C134.611 27.8699 135.32 27.6725 136.118 27.6725C136.937 27.6725 137.642 27.8714 138.255 28.2546L138.261 28.2584L138.267 28.2622C138.893 28.6375 139.385 29.1511 139.751 29.8182L139.754 29.8246L139.758 29.8309C140.131 30.4845 140.328 31.2455 140.328 32.1364C140.328 33.0054 140.133 33.7703 139.754 34.449ZM147.566 40.0115L147.585 40.0318L147.605 40.0508C148.047 40.4635 148.596 40.6617 149.197 40.6617C149.805 40.6617 150.37 40.4699 150.808 40.0315L150.818 40.0217L150.828 40.0115C151.24 39.5693 151.439 39.0208 151.439 38.4197V25.8813C151.439 25.2731 151.247 24.708 150.808 24.2696C150.37 23.8311 149.805 23.6393 149.197 23.6393C148.596 23.6393 148.047 23.8375 147.605 24.2503L147.595 24.2597L147.585 24.2696C147.146 24.708 146.955 25.2731 146.955 25.8813V38.4197C146.955 39.0208 147.153 39.5693 147.566 40.0115ZM147.289 21.9558L147.303 21.9707L147.318 21.985C147.84 22.4806 148.478 22.7417 149.197 22.7417C149.916 22.7417 150.553 22.4792 151.062 21.9706C151.581 21.4519 151.861 20.8088 151.861 20.077C151.861 19.3507 151.584 18.7144 151.062 18.2114C150.559 17.6894 149.923 17.4124 149.197 17.4124C148.465 17.4124 147.822 17.693 147.303 18.2117C146.794 18.7204 146.532 19.3575 146.532 20.077C146.532 20.7955 146.793 21.4341 147.289 21.9558ZM159.098 38.4479V30.2205C159.098 29.5458 159.302 29.0419 159.682 28.6455C160.113 28.2156 160.722 27.8919 161.562 27.7108C162.385 27.5332 163.347 27.5416 164.463 27.7672C164.79 27.8414 165.124 27.8603 165.453 27.8004C165.795 27.7382 166.109 27.593 166.374 27.3607L166.379 27.3565C166.695 27.076 166.879 26.7116 166.966 26.3198C167.071 25.9005 167.039 25.4704 166.839 25.0705C166.647 24.6874 166.333 24.3941 165.978 24.1671C165.235 23.6606 164.207 23.4702 163.027 23.4702C161.768 23.4702 160.599 23.7654 159.534 24.3618C159.306 24.4893 159.088 24.6269 158.879 24.7745C158.787 24.5803 158.662 24.3998 158.496 24.2412C158.066 23.7912 157.473 23.6393 156.884 23.6393C156.288 23.6393 155.71 23.8042 155.272 24.2414C154.835 24.6786 154.67 25.2567 154.67 25.8531V38.4479C154.67 39.0522 154.829 39.6448 155.272 40.0878L155.284 40.0992L155.296 40.1101C155.735 40.5155 156.304 40.6617 156.884 40.6617C157.478 40.6617 158.076 40.5072 158.507 40.0482C158.936 39.6124 159.098 39.0391 159.098 38.4479ZM172.061 39.6464L172.068 39.6503L172.074 39.654C173.388 40.405 174.852 40.7744 176.447 40.7744C178.041 40.7744 180.804 39.6464 180.795 39.6513L180.804 39.6464C182.087 38.8808 183.104 37.8423 183.849 36.5413C184.621 35.2253 184.992 35.0572 184.992 33.4435L185 19.2881C185 18.6799 184.808 18.1148 184.37 17.6763C183.931 17.2379 183.366 17.0461 182.758 17.0461C182.157 17.0461 181.608 17.2443 181.166 17.6571L181.156 17.6665L181.146 17.6763C180.708 18.1148 180.516 18.6799 180.516 19.2881V25.0311C180.141 24.7592 179.738 24.5198 179.308 24.3131C178.253 23.7864 177.107 23.5266 175.883 23.5266C174.37 23.5266 172.989 23.9119 171.763 24.6927C170.551 25.4465 169.592 26.482 168.891 27.7813L168.889 27.7853C168.2 29.0803 167.865 30.5373 167.865 32.1364C167.865 33.7477 168.233 35.2212 168.985 36.5369L168.99 36.5451C169.753 37.8438 170.779 38.8811 172.061 39.6464ZM178.584 28.2546L178.59 28.2584L178.596 28.2622C179.222 28.6375 179.714 29.1511 180.08 29.8182C180.439 30.4741 180.629 31.2397 180.629 32.1364C180.629 33.0113 180.44 33.7807 180.076 34.4616C179.709 35.1475 179.215 35.6786 178.59 36.0707C177.977 36.4371 177.27 36.6285 176.447 36.6285C175.647 36.6285 174.937 36.4393 174.299 36.0685C173.675 35.6758 173.171 35.1433 172.786 34.4554C172.424 33.776 172.236 33.0086 172.236 32.1364C172.236 31.2427 172.425 30.4791 172.782 29.8246C173.166 29.1539 173.67 28.6382 174.297 28.2622L174.302 28.2592C174.94 27.8699 175.649 27.6725 176.447 27.6725C177.266 27.6725 177.971 27.8714 178.584 28.2546Z" fill="#444444"/>
<path d="M180.795 39.6513C181.741 39.1057 184.248 38.8551 184.992 39.0548V33.4435L181.482 32.7292C181.482 32.7292 180.795 37.8237 180.795 39.6513Z" fill="#444444"/>
<path d="M180.739 32.7135C180.739 31.5367 181.693 30.5827 182.869 30.5827C184.046 30.5827 185 31.5367 185 32.7135V38.9804C185 40.1572 184.046 41.1112 182.869 41.1112C181.693 41.1112 180.739 40.1572 180.739 38.9804V32.7135Z" fill="#444444"/>
<path d="M127.595 32.7135C127.595 31.5367 128.549 30.5827 129.726 30.5827C130.902 30.5827 131.856 31.5367 131.856 32.7135V38.9804C131.856 40.1572 130.902 41.1112 129.726 41.1112C128.549 41.1112 127.595 40.1572 127.595 38.9804V32.7135Z" fill="#444444"/>
<defs>
<linearGradient id="paint0_linear_292_708" x1="24.7089" y1="0" x2="24.7089" y2="48.1302" gradientUnits="userSpaceOnUse">
<stop stop-color="#0092E7"/>
<stop offset="1" stop-color="#0092E7" stop-opacity="0"/>
</linearGradient>
</defs>
</svg>
